<svg width="21" height="20" viewBox="0 0 21 20" fill="none" xmlns="http://www.w3.org/2000/svg">
<path fill-rule="evenodd" clip-rule="evenodd" d="M4.07129 2.00254C3.89368 2.00216 3.72241 2.02226 3.55981 2.06048C3.33679 1.56893 3.04211 1.12794 2.70715 0.792892C2.13843 0.22422 1.24158 0 0 0V2C0.758423 2 1.19495 2.10911 1.29285 2.20711C1.6709 2.58508 2 3.35306 2 4L2.01001 4.14142L2.98987 11.0005C1.35034 11.0856 0.0802002 12.3588 0.0012207 13.9504L0 15C0.0968018 16.6439 1.36279 17.9085 2.94324 17.9984L3.17029 17.9987C3.58179 19.1646 4.69336 20 6 20C7.30627 20 8.41748 19.1652 8.82935 18H11.1707C11.5825 19.1652 12.6937 20 14 20C15.6569 20 17 18.6569 17 17C17 15.3431 15.6569 14 14 14C12.6937 14 11.5825 14.8348 11.1707 16H8.82935C8.41748 14.8348 7.30627 14 6 14C4.69373 14 3.58252 14.8348 3.17065 16H3C2.48999 15.9694 2.03259 15.5124 1.99817 14.9401L2 14C2.02698 13.4813 2.48132 13.027 3.04956 12.9988L5.02368 12.9993L5.03796 13H15.1168L15.2644 12.9532C16.0227 12.7126 16.6296 12.1416 16.917 11.4025L17.0223 11.194L17.3646 10.5159C17.7188 9.81392 18.0729 9.11076 18.418 8.4238C19.2632 6.74107 19.7948 5.67166 19.9125 5.40906C20.5171 4.06045 19.2925 3.02246 18.0406 3.00036L4.07129 2.00254ZM14.7694 11H5.11292C5.04871 10.9822 4.99976 10.9278 4.99011 10.86L4.01025 4.00073L17.8933 4.99492C17.6505 5.49032 17.2089 6.37516 16.6307 7.52609L16.6163 7.55493C16.2863 8.21186 15.9326 8.91405 15.579 9.61507L15.2372 10.2923L15.1075 10.5488L15.0587 10.6622C15.0066 10.8078 14.9028 10.9274 14.7694 11ZM7 17C7 17.5523 6.55225 18 6 18C5.44775 18 5 17.5523 5 17C5 16.4477 5.44775 16 6 16C6.55225 16 7 16.4477 7 17ZM14 18C14.5522 18 15 17.5523 15 17C15 16.4477 14.5522 16 14 16C13.4478 16 13 16.4477 13 17C13 17.5523 13.4478 18 14 18Z" fill="white"/>
</svg>
