<svg width="56" height="56" viewBox="0 0 56 56" fill="none" xmlns="http://www.w3.org/2000/svg">
<path fill-rule="evenodd" clip-rule="evenodd" d="M6 1H50C52.7596 1 55 3.24042 55 6V50C55 52.7596 52.7596 55 50 55H6C3.24042 55 1 52.7596 1 50V6C1 3.24042 3.24042 1 6 1Z" stroke="#6F8018" stroke-width="2"/>
<path fill-rule="evenodd" clip-rule="evenodd" d="M10 5H47C49.7596 5 52 7.24042 52 10V47C52 49.7596 49.7596 52 47 52H10C7.24042 52 5 49.7596 5 47V10C5 7.24042 7.24042 5 10 5Z" stroke="#90A429" stroke-width="2"/>
<path fill-rule="evenodd" clip-rule="evenodd" d="M41 22.1667H16V18H41V22.1667ZM41 30.5H16V26.3333H41V30.5ZM41 38.8333H16V34.6667H41V38.8333Z" fill="white"/>
<path fill-rule="evenodd" clip-rule="evenodd" d="M13 8H43C45.7596 8 48 10.2404 48 13V43C48 45.7596 45.7596 48 43 48H13C10.2404 48 8 45.7596 8 43V13C8 10.2404 10.2404 8 13 8Z" stroke="#D0E562" stroke-width="2"/>
</svg>
