<svg xmlns="http://www.w3.org/2000/svg" viewBox="0 0 251.7 39.97"><defs><style>.cls-1{fill:#414042;}.cls-2{fill:#008952;}</style></defs><title>Nairatree Logo</title><g id="Layer_2" data-name="Layer 2"><g id="Layer_1-2" data-name="Layer 1"><path class="cls-1" d="M54.29,35.22V4.34H63L74.5,26.5V4.34H81V35.22H72L60.73,13.69V35.22Z"/><path class="cls-1" d="M84.94,28.77c0-4.81,4-7,9-7l5.09,0V21c0-2.72-2.09-3.77-4.36-3.77s-4.54,1.5-5.81,2.63l-2.77-3.9c2.72-2.86,6-3.73,9.76-3.73,5,0,9.22,3.05,9.22,7.82V35.22H99V33.4a8.85,8.85,0,0,1-6.27,2.23C88.57,35.63,84.94,33.49,84.94,28.77Zm6.27-.45c0,1.86,1.54,2.59,3.31,2.59A5.13,5.13,0,0,0,99,28.45V25.86H94.66C92.8,25.86,91.21,26.36,91.21,28.32Z"/><path class="cls-1" d="M116.19,4.34v5.9H110.1V4.34ZM110.1,12.6h6V35.22h-6Z"/><path class="cls-1" d="M127.22,12.6v2.86a8,8,0,0,1,6.4-3.13,8.21,8.21,0,0,1,2.41.32v5.86a9.12,9.12,0,0,0-2.22-.27,7.57,7.57,0,0,0-6.59,3.45V35.22h-6V12.6Z"/><path class="cls-1" d="M138,28.77c0-4.81,3.95-7,9-7l5.09,0V21c0-2.72-2.09-3.77-4.36-3.77s-4.54,1.5-5.82,2.63l-2.77-3.9c2.73-2.86,6-3.73,9.77-3.73,5,0,9.22,3.05,9.22,7.82V35.22h-6V33.4a8.85,8.85,0,0,1-6.27,2.23C141.66,35.63,138,33.49,138,28.77Zm6.27-.45c0,1.86,1.54,2.59,3.31,2.59a5.14,5.14,0,0,0,4.5-2.46V25.86h-4.36C145.89,25.86,144.3,26.36,144.3,28.32Z"/><path class="cls-1" d="M161.28,9.92V4.34h21.8V9.92h-7.63v25.3H169V9.92Z"/><path class="cls-1" d="M192.21,12.6v2.86a8,8,0,0,1,6.4-3.13,8.21,8.21,0,0,1,2.41.32v5.86a9.14,9.14,0,0,0-2.23-.27,7.55,7.55,0,0,0-6.58,3.45V35.22h-6V12.6Z"/><path class="cls-1" d="M214.32,12.19C221,12.19,225.45,16.55,226,24c.05.68.05,1.81.05,2.5H209.47a5.63,5.63,0,0,0,5.4,4,6.39,6.39,0,0,0,5.36-2.95L225,29.86a11.3,11.3,0,0,1-10.17,5.77c-7.68,0-12-5.27-12-11.76A11.76,11.76,0,0,1,214.32,12.19ZM219.5,22a4.91,4.91,0,0,0-4.9-4.58A5.27,5.27,0,0,0,209.37,22Z"/><path class="cls-1" d="M240,12.19c6.68,0,11.13,4.36,11.63,11.77,0,.68,0,1.81,0,2.5H235.17a5.64,5.64,0,0,0,5.41,4,6.37,6.37,0,0,0,5.35-2.95l4.77,2.36a11.28,11.28,0,0,1-10.17,5.77c-7.68,0-12-5.27-12-11.76A11.75,11.75,0,0,1,240,12.19ZM245.21,22a4.93,4.93,0,0,0-4.91-4.58A5.26,5.26,0,0,0,235.08,22Z"/><path class="cls-2" d="M0,1.33V17.71A1.33,1.33,0,0,0,1.33,19H13.79a1.33,1.33,0,0,0,1.14-2L5.13.65A1.33,1.33,0,0,0,4,0H1.33A1.32,1.32,0,0,0,0,1.33Z"/><path class="cls-2" d="M0,37.86V26.29a2.12,2.12,0,0,1,2.11-2.11h15a2.09,2.09,0,0,1,1.79,1L26,36.75A2.11,2.11,0,0,1,24.23,40H2.11A2.12,2.12,0,0,1,0,37.86Z"/><path class="cls-2" d="M37.79,2.18V13.74a2.11,2.11,0,0,1-2.11,2.11h-15a2.13,2.13,0,0,1-1.8-1L11.76,3.29A2.11,2.11,0,0,1,13.55.07H35.68A2.11,2.11,0,0,1,37.79,2.18Z"/><path class="cls-2" d="M37.79,38.64V22.26a1.33,1.33,0,0,0-1.33-1.33H24a1.32,1.32,0,0,0-1.13,2l9.8,16.38A1.33,1.33,0,0,0,33.8,40h2.66A1.34,1.34,0,0,0,37.79,38.64Z"/></g></g></svg>