<svg width="130" height="21" viewBox="0 0 130 21" fill="none" xmlns="http://www.w3.org/2000/svg">
<path fill-rule="evenodd" clip-rule="evenodd" d="M28.0564 18.4589V2.25488H32.5516L38.4936 13.8966V2.25488H41.8521V18.4589H37.2019L31.3632 7.18426V18.4589H28.0564V18.4589Z" fill="white"/>
<path fill-rule="evenodd" clip-rule="evenodd" d="M48.5174 11.4322C45.934 11.4322 43.8672 12.5859 43.8672 15.103C43.8672 17.5677 45.7789 18.669 47.8974 18.669C49.3441 18.669 50.3259 18.2494 51.1526 17.5153V18.4592H54.2527V10.4883C54.2527 7.97116 52.0826 6.39795 49.4991 6.39795C47.484 6.39795 45.8306 6.81747 44.4355 8.33824L45.8823 10.3834C46.554 9.80656 47.6907 9.01996 48.8791 9.01996C50.0675 9.01996 51.1526 9.5968 51.1526 11.0127V11.4322H48.5174ZM48.8275 16.2043C47.8974 16.2043 47.1224 15.8372 47.1224 14.8408C47.1224 13.8445 47.9491 13.5823 48.8791 13.5298H51.1526V14.8933C50.6359 15.6799 49.9642 16.2043 48.8275 16.2043Z" fill="white"/>
<path fill-rule="evenodd" clip-rule="evenodd" d="M60.0398 5.34885V2.25488H56.8879V5.34885H60.0398ZM59.9881 6.60742H56.8879V18.4589H59.9881V6.60742V6.60742Z" fill="white"/>
<path fill-rule="evenodd" clip-rule="evenodd" d="M65.7234 6.60732V8.12809C66.5502 7.07928 67.6352 6.50244 69.0303 6.50244C69.4953 6.50244 69.857 6.55488 70.2703 6.65976V9.75374C69.9087 9.64886 69.4953 9.59641 69.1336 9.59641C67.6869 9.59641 66.3952 10.2781 65.7234 11.4318V18.5113H62.6233V6.60732H65.7234Z" fill="white"/>
<path fill-rule="evenodd" clip-rule="evenodd" d="M75.9539 11.4322C73.3705 11.4322 71.3037 12.5859 71.3037 15.103C71.3037 17.5677 73.2155 18.669 75.3339 18.669C76.7807 18.669 77.7624 18.2494 78.5891 17.5153V18.4592H81.6892V10.4883C81.6892 7.97116 79.5191 6.39795 76.9357 6.39795C74.9722 6.39795 73.2672 6.81747 71.8721 8.33824L73.3188 10.3834C73.9905 9.80656 75.1272 9.01996 76.3156 9.01996C77.504 9.01996 78.5891 9.5968 78.5891 11.0127V11.4322H75.9539V11.4322ZM76.264 16.2043C75.3339 16.2043 74.5589 15.8372 74.5589 14.8408C74.5589 13.8445 75.3856 13.5823 76.3156 13.5298H78.5891V14.8933C78.0724 15.6799 77.4007 16.2043 76.264 16.2043V16.2043Z" fill="white"/>
<path fill-rule="evenodd" clip-rule="evenodd" d="M83.3425 5.19154V2.25488H94.6064V5.19154H90.6796V18.4589H87.3211V5.19154H83.3425V5.19154Z" fill="white"/>
<path fill-rule="evenodd" clip-rule="evenodd" d="M99.3084 6.60732V8.12809C100.135 7.07928 101.22 6.50244 102.615 6.50244C103.08 6.50244 103.442 6.55488 103.855 6.65976V9.75374C103.494 9.64886 103.08 9.59641 102.719 9.59641C101.272 9.59641 99.9801 10.2781 99.3084 11.4318V18.5113H96.2083V6.60732H99.3084V6.60732Z" fill="white"/>
<path fill-rule="evenodd" clip-rule="evenodd" d="M116.721 12.5859C116.463 8.70532 114.189 6.39795 110.727 6.39795C107.524 6.39795 104.785 9.17728 104.785 12.5334C104.785 15.9421 107.007 18.7214 110.986 18.7214C113.466 18.7214 115.223 17.5153 116.256 15.6799L113.776 14.4213C113.259 15.2603 112.226 15.9945 110.986 15.9945C109.591 15.9945 108.506 14.9981 108.196 13.8969H116.721V12.5859V12.5859ZM110.882 9.12484C112.381 9.12484 113.311 10.2785 113.414 11.5371H108.196C108.454 10.2261 109.332 9.12484 110.882 9.12484Z" fill="white"/>
<path fill-rule="evenodd" clip-rule="evenodd" d="M130 12.5859C129.742 8.70532 127.468 6.39795 124.006 6.39795C120.855 6.39795 118.064 9.17728 118.064 12.5334C118.064 15.9421 120.286 18.7214 124.265 18.7214C126.745 18.7214 128.502 17.5153 129.535 15.6799L127.055 14.4213C126.538 15.2603 125.505 15.9945 124.265 15.9945C122.87 15.9945 121.785 14.9981 121.475 13.8969H130V12.5859ZM124.161 9.12484C125.66 9.12484 126.59 10.2785 126.693 11.5371H121.475C121.733 10.2261 122.611 9.12484 124.161 9.12484Z" fill="white"/>
<path fill-rule="evenodd" clip-rule="evenodd" d="M0 0.681723V9.28192C0 9.649 0.310014 9.96364 0.6717 9.96364H7.13036C7.64706 9.96364 8.00875 9.3868 7.69873 8.91484L2.63513 0.314642C2.53179 0.104881 2.32512 0 2.06677 0H0.6717C0.310014 0 0 0.314641 0 0.681723Z" fill="white"/>
<path fill-rule="evenodd" clip-rule="evenodd" d="M0 19.8747V13.7917C0 13.1624 0.465021 12.6904 1.08505 12.6904H8.83545C9.19713 12.6904 9.55883 12.9002 9.7655 13.2148L13.434 19.2455C13.899 19.9796 13.3824 20.9235 12.504 20.9235H1.08505C0.465021 20.976 0 20.4516 0 19.8747Z" fill="white"/>
<path fill-rule="evenodd" clip-rule="evenodd" d="M19.5309 1.15349V7.23656C19.5309 7.86584 19.0659 8.3378 18.4459 8.3378H10.6955C10.3338 8.3378 9.9721 8.12804 9.76542 7.8134L6.0969 1.73033C5.63188 0.99617 6.14857 0.0522461 7.02695 0.0522461H18.4459C19.0142 0.0522461 19.5309 0.524207 19.5309 1.15349V1.15349Z" fill="white"/>
<path fill-rule="evenodd" clip-rule="evenodd" d="M19.531 20.2417V11.6939C19.531 11.3268 19.2209 11.0122 18.8593 11.0122H12.4006C11.8839 11.0122 11.5222 11.5891 11.8322 12.061L16.8958 20.6612C16.9992 20.871 17.2575 20.9759 17.4642 20.9759H18.8593C19.2209 20.9759 19.531 20.6612 19.531 20.2417V20.2417Z" fill="white"/>
</svg>
