<svg width="20" height="20" viewBox="0 0 20 20" fill="none" xmlns="http://www.w3.org/2000/svg">
<path fill-rule="evenodd" clip-rule="evenodd" d="M8.02502 16.05C9.71387 16.05 11.281 15.5283 12.5737 14.6372L17.9365 19.9999L19.9999 17.9365L14.6372 12.5738C15.5283 11.2809 16.05 9.7139 16.05 8.02501C16.05 3.59292 12.4572 0 8.02502 0C3.5929 0 0 3.59292 0 8.02501C0 12.4571 3.5929 16.05 8.02502 16.05ZM13.1318 8.02501C13.1318 10.8454 10.8455 13.1318 8.02502 13.1318C5.20459 13.1318 2.91821 10.8454 2.91821 8.02501C2.91821 5.20459 5.20459 2.91818 8.02502 2.91818C10.8455 2.91818 13.1318 5.20459 13.1318 8.02501Z" fill="#242C49"/>
</svg>
